# xmcd
#
# Track frame offsets: 
#        150
#        14189
#        25910
#        37401
#        51326
#        62663
#        74974
#        89037
#        103948
#        118683
#        132547
#        144939
#        158900
#        171776
#        186468
#        199901
#        214527
#        227518
#        239332
#        251823
#        264144
#        276748
#        290040
#        301609
#
# Disc length: 4189 seconds
#
# Revision: 0
# Processed by: cddbd v1.5.1PL0 Copyright (c) Steve Scherf et al.
# Submitted via: ExactAudioCopy v0.95a5
#
DISCID=86105b18
DTITLE=Robert Nighthawk - Ramblin' Bob
DYEAR=2005
DGENRE=Blues
TTITLE0=Tough Time
TTITLE1=Lonesome World
TTITLE2=Don't Mistreat Your Woman
TTITLE3=Prowling Night-Hawk
TTITLE4=Take It Easy Baby
TTITLE5=Mean Black Cat
TTITLE6=Marnie Lee
TTITLE7=Every Day And Night
TTITLE8=Ol' Mose
TTITLE9=Freight Train Blues
TTITLE10=Next-Door Neighbor
TTITLE11=Friar's Point Blues
TTITLE12=My Sweet Lovin' Woman
TTITLE13=Anna Lee
TTITLE14=Black Angel Blues
TTITLE15=Return Mail Blues
TTITLE16=Six Three O
TTITLE17=Kansas City Blues
TTITLE18=Cryin' Won't Help You
TTITLE19=Take It Easy Baby
TTITLE20=Feel So Bad
TTITLE21=Bricks In My Pillow
TTITLE22=You Missed A Good Man
TTITLE23=Maggie Campbell
EXTD=
EXTT0=
EXTT1=
EXTT2=
EXTT3=
EXTT4=
EXTT5=
EXTT6=
EXTT7=
EXTT8=
EXTT9=
EXTT10=
EXTT11=
EXTT12=
EXTT13=
EXTT14=
EXTT15=
EXTT16=
EXTT17=
EXTT18=
EXTT19=
EXTT20=
EXTT21=
EXTT22=
EXTT23=
PLAYORDER=
